<?xml version="1.0" encoding="UTF-8" standalone="no"?><!DOCTYPE svg PUBLIC "-//W3C//DTD SVG 1.1//EN" "http://www.w3.org/Graphics/SVG/1.1/DTD/svg11.dtd"><svg width="100%" height="100%" viewBox="0 0 690 110" version="1.1" xmlns="http://www.w3.org/2000/svg" xmlns:xlink="http://www.w3.org/1999/xlink" xml:space="preserve" xmlns:serif="http://www.serif.com/" style="fill-rule:evenodd;clip-rule:evenodd;"><path id="use31" d="M53.61,5.592c-26.9,0 -48.732,22.743 -48.732,50.765c0,28.022 21.832,50.765 48.732,50.765c26.9,0 48.732,-22.743 48.732,-50.765c0,-28.022 -21.832,-50.765 -48.732,-50.765Zm0,49.341c0.755,0 1.367,0.637 1.367,1.424c0,0.786 -0.612,1.423 -1.367,1.423c-0.755,0 -1.366,-0.637 -1.366,-1.423c0,-0.787 0.611,-1.424 1.366,-1.424Z" style="fill-opacity:0.498039;fill-rule:nonzero;"/><path id="path3191" d="M52.895,4.494c-26.9,0 -48.732,22.743 -48.732,50.765c0,28.022 21.832,50.765 48.732,50.765c26.9,0 48.732,-22.743 48.732,-50.765c0,-28.022 -21.832,-50.765 -48.732,-50.765Zm0,49.342c0.755,0 1.367,0.637 1.367,1.423c0,0.787 -0.612,1.424 -1.367,1.424c-0.755,0 -1.366,-0.637 -1.366,-1.424c0,-0.786 0.611,-1.423 1.366,-1.423Z" style="fill-rule:nonzero;"/><path id="path3271" d="M52.895,36.78c-9.788,0 -17.739,8.282 -17.739,18.479c0,10.197 7.951,18.48 17.739,18.48c9.788,0 17.739,-8.283 17.739,-18.48c0,-10.197 -7.951,-18.479 -17.739,-18.479Zm0,17.261c0.647,0 1.169,0.545 1.169,1.218c0,0.674 -0.522,1.218 -1.169,1.218c-0.646,0 -1.169,-0.544 -1.169,-1.218c0,-0.673 0.523,-1.218 1.169,-1.218Z" style="fill:#333;fill-rule:nonzero;"/><path id="path3176" d="M52.895,4.983c26.646,0 48.263,22.518 48.263,50.276c0,27.758 -21.617,50.276 -48.263,50.276c-26.646,0 -48.262,-22.518 -48.262,-50.276c0,-27.758 21.616,-50.276 48.262,-50.276Z" style="fill:none;stroke:#000;stroke-width:0.96px;"/><path id="use3151" d="M77.541,55.259c0,14.174 -11.04,25.683 -24.646,25.683l0,24.104c26.381,0 47.793,-22.306 47.793,-49.787l-23.147,0Z" style="fill:url(#_Radial1);fill-rule:nonzero;"/><path id="path3193" d="M28.249,55.259c0,-14.173 11.04,-25.682 24.646,-25.682l0,-24.105c-26.381,0 -47.793,22.306 -47.793,49.787l23.147,0Z" style="fill:url(#_Radial2);fill-rule:nonzero;"/><path id="path3215" d="M52.895,36.788c9.79,0 17.731,8.272 17.731,18.471c0,10.199 -7.941,18.472 -17.731,18.472c-9.79,0 -17.732,-8.273 -17.732,-18.472c0,-10.199 7.942,-18.471 17.732,-18.471Z" style="fill:none;stroke:#000;stroke-width:0.81px;"/><path id="path3223" d="M62.895,44.842c-5.519,-5.75 -14.481,-5.75 -20,0c-5.519,5.749 -5.519,15.085 0,20.834c5.519,5.75 14.481,5.75 20,0c5.519,-5.749 5.519,-15.085 0,-20.834Zm-9.034,9.411c0.534,0.556 0.534,1.457 0,2.013c-0.534,0.556 -1.398,0.556 -1.932,0c-0.534,-0.556 -0.534,-1.457 0,-2.013c0.534,-0.557 1.398,-0.557 1.932,0Z" style="fill:url(#_Radial3);fill-rule:nonzero;"/><path id="path3230" d="M64.472,43.199c-1.86,-1.938 -4.058,-3.308 -6.397,-4.117l-0.325,1.018c2.19,0.759 4.247,2.048 5.989,3.863c2.122,2.21 3.492,4.907 4.109,7.749l1.007,-0.236c-0.659,-3.034 -2.117,-5.917 -4.383,-8.277Z" style="fill:#fff;fill-opacity:0.742574;fill-rule:nonzero;"/><path id="path3232" d="M37.779,52.585l-1.025,-0.182c-0.852,5.261 0.669,10.859 4.564,14.917c3.884,4.046 9.239,5.632 14.278,4.759l-0.169,-1.061c-4.722,0.819 -9.736,-0.671 -13.376,-4.462c-3.649,-3.802 -5.072,-9.041 -4.272,-13.971Z" style="fill:#fff;fill-opacity:0.742574;fill-rule:nonzero;"/><path d="M176.519,24.367c0.78,1.144 1.17,2.678 1.17,4.602c0,4.524 -2.47,11.492 -7.41,20.904c-5.148,9.932 -9.36,14.898 -12.636,14.898c-0.832,0 -1.456,-0.468 -1.872,-1.404c-0.156,1.196 -0.234,2.704 -0.234,4.524c0,3.12 0.182,6.708 0.546,10.764c0,0.364 0.13,0.962 0.39,1.794c0.26,0.832 0.39,1.456 0.39,1.872c0,0.988 -0.676,1.82 -2.028,2.496c-0.624,0.312 -1.456,0.468 -2.496,0.468c-1.716,0 -3.328,-0.39 -4.836,-1.17c-1.716,-0.832 -2.704,-1.924 -2.964,-3.276c-0.052,-0.364 -0.078,-0.676 -0.078,-0.936c0,-0.78 0.273,-1.495 0.819,-2.145c0.546,-0.65 0.819,-1.079 0.819,-1.287l-1.404,-50.544c0,-0.156 -0.078,-0.468 -0.234,-0.936c-0.156,-0.468 -0.234,-0.832 -0.234,-1.092c0,-0.936 0.676,-1.664 2.028,-2.184c1.04,-0.416 2.132,-0.624 3.276,-0.624c0.364,0 1.82,0.156 4.368,0.468c0.312,0 1.859,-0.559 4.641,-1.677c2.782,-1.118 5.239,-1.677 7.371,-1.677c4.16,0 7.696,2.054 10.608,6.162Zm-11.622,3.12c-1.248,0 -2.847,0.663 -4.797,1.989c-1.95,1.326 -3.653,2.847 -5.109,4.563l0.312,17.94c2.288,-1.716 4.771,-5.161 7.449,-10.335c2.678,-5.174 4.017,-9.113 4.017,-11.817c0,-1.56 -0.624,-2.34 -1.872,-2.34Z" style="fill:#fff;fill-rule:nonzero;"/><path d="M194.069,24.835c0.156,0.156 0.234,0.416 0.234,0.78c0,0.468 -0.156,1.274 -0.468,2.418c-0.364,1.404 -0.598,2.366 -0.702,2.886c-0.104,0.52 -0.052,1.664 0.156,3.432c0,1.092 -0.325,1.807 -0.975,2.145c-0.65,0.338 -1.469,0.507 -2.457,0.507c-1.404,0 -2.834,-0.286 -4.29,-0.858c-1.768,-0.728 -2.652,-1.69 -2.652,-2.886c0,-0.364 0.156,-0.871 0.468,-1.521c0.312,-0.65 0.494,-1.183 0.546,-1.599c0.104,-0.416 0.104,-1.456 0,-3.12c-0.104,-1.3 0.156,-2.184 0.78,-2.652c0.832,-0.624 2.314,-0.936 4.446,-0.936c2.34,0 3.978,0.468 4.914,1.404Zm1.014,19.032c0,0.728 -0.403,1.859 -1.209,3.393c-0.806,1.534 -1.209,2.795 -1.209,3.783l0,22.932c0,1.04 0.286,2.509 0.858,4.407c0.572,1.898 0.858,3.211 0.858,3.939c0,1.04 -0.416,1.82 -1.248,2.34c-1.3,0.832 -2.704,1.248 -4.212,1.248c-1.976,0 -3.38,-0.676 -4.212,-2.028c-1.092,-1.664 -1.638,-6.63 -1.638,-14.898c0,-1.976 0.039,-5.057 0.117,-9.243c0.078,-4.186 0.117,-7.241 0.117,-9.165c0,-0.728 -0.078,-1.677 -0.234,-2.847c-0.156,-1.17 -0.234,-2.015 -0.234,-2.535c0,-1.716 0.624,-3.198 1.872,-4.446c0.52,-0.52 1.482,-0.78 2.886,-0.78c1.404,0 2.808,0.221 4.212,0.663c1.404,0.442 2.301,0.949 2.691,1.521c0.39,0.572 0.585,1.144 0.585,1.716Z" style="fill:#fff;fill-rule:nonzero;"/><path d="M237.281,78.343c-0.104,1.144 -0.858,2.119 -2.262,2.925c-1.404,0.806 -2.964,1.209 -4.68,1.209c-2.548,0 -4.29,-0.806 -5.226,-2.418c0.416,-16.016 -0.052,-24.128 -1.404,-24.336c-1.3,-0.208 -4.472,6.968 -9.516,21.528c0,1.56 0,3.12 0,4.68c-0.052,1.872 -0.559,3.198 -1.521,3.978c-0.962,0.78 -1.989,1.17 -3.081,1.17c-1.872,0 -3.874,-1.014 -6.006,-3.042c-0.624,-0.52 -0.962,-4.472 -1.014,-11.856c0.052,4.524 0.078,-3.874 0.078,-25.194c0,-0.468 -0.052,-1.105 -0.156,-1.911c-0.104,-0.806 -0.156,-1.391 -0.156,-1.755c0,-0.988 0.26,-1.846 0.78,-2.574c0.624,-0.936 1.612,-1.404 2.964,-1.404c1.404,0 2.873,0.429 4.407,1.287c1.534,0.858 2.457,1.677 2.769,2.457c0.208,0.52 0.312,1.04 0.312,1.56c0,0.52 -0.208,1.248 -0.624,2.184c-0.416,0.936 -0.624,1.716 -0.624,2.34l0,10.764c3.276,-6.968 5.746,-11.57 7.41,-13.806c2.964,-3.848 6.318,-5.642 10.062,-5.382c2.236,0.156 3.822,2.236 4.758,6.24c0.728,3.016 1.118,7.488 1.17,13.416c0,4.68 0,9.36 0,14.04c0.104,0.364 0.468,1.014 1.092,1.95c0.364,0.52 0.52,1.17 0.468,1.95Z" style="fill:#fff;fill-rule:nonzero;"/><path d="M270.587,75.145c-0.416,1.976 -1.82,4.082 -4.212,6.318c-0.364,0.572 -1.794,1.326 -4.29,2.262c-2.86,1.092 -5.33,1.56 -7.41,1.404c-3.9,-0.26 -6.968,-2.496 -9.204,-6.708c-2.028,-3.9 -3.042,-8.684 -3.042,-14.352c0,-6.136 1.144,-11.518 3.432,-16.146c2.548,-5.096 5.954,-7.956 10.218,-8.58c0.832,-0.104 1.638,-0.156 2.418,-0.156c6.188,0 9.594,3.796 10.218,11.388c0.312,3.484 -1.066,7.28 -4.134,11.388c-3.328,4.524 -7.592,7.696 -12.792,9.516c0.572,2.08 1.014,3.432 1.326,4.056c0.728,1.3 1.716,1.95 2.964,1.95c1.196,0 2.47,-0.468 3.822,-1.404c1.144,-0.78 1.924,-1.534 2.34,-2.262c0.208,-0.104 0.416,-0.689 0.624,-1.755c0.208,-1.066 0.754,-1.833 1.638,-2.301c0.312,-0.156 0.676,-0.234 1.092,-0.234c1.248,0 2.457,0.611 3.627,1.833c1.17,1.222 1.625,2.483 1.365,3.783Zm-12.246,-27.456c-2.08,0 -3.77,1.482 -5.07,4.446c-1.716,3.952 -2.418,7.852 -2.106,11.7c2.444,-0.78 4.706,-2.6 6.786,-5.46c2.08,-2.86 3.12,-5.408 3.12,-7.644c0,-2.028 -0.91,-3.042 -2.73,-3.042Z" style="fill:#fff;fill-rule:nonzero;"/><path d="M308.105,76.783c0.312,1.3 0.468,2.132 0.468,2.496c0,1.092 -0.637,1.989 -1.911,2.691c-1.274,0.702 -2.639,1.053 -4.095,1.053c-2.236,0 -3.666,-0.832 -4.29,-2.496c-0.26,-0.676 -0.39,-1.248 -0.39,-1.716c0,-0.676 0.299,-1.404 0.897,-2.184c0.598,-0.78 0.897,-1.508 0.897,-2.184c0.624,-2.704 0.936,-6.604 0.936,-11.7c0,-8.84 -0.624,-13.364 -1.872,-13.572c-0.936,-0.156 -2.444,1.326 -4.524,4.446c-2.184,3.276 -4.004,6.942 -5.46,10.998c-1.716,4.784 -2.444,8.996 -2.184,12.636c-0.156,0.312 -0.234,0.624 -0.234,0.936c0,0.468 0.208,1.131 0.624,1.989c0.416,0.858 0.624,1.547 0.624,2.067c0,0.52 -0.182,1.014 -0.546,1.482c-1.404,2.028 -2.808,3.042 -4.212,3.042c-1.456,0 -2.86,-1.144 -4.212,-3.432c-0.78,-1.352 -1.17,-9.126 -1.17,-23.322c0,-5.2 0.13,-17.03 0.39,-35.49c0,-0.312 -0.026,-0.793 -0.078,-1.443c-0.052,-0.65 -0.078,-1.157 -0.078,-1.521c0.052,-0.52 0.208,-0.988 0.468,-1.404c0.572,-1.092 1.794,-1.638 3.666,-1.638c1.664,0 3.185,0.442 4.563,1.326c1.378,0.884 1.911,1.924 1.599,3.12c-0.052,0.312 -0.299,0.676 -0.741,1.092c-0.442,0.416 -0.663,0.832 -0.663,1.248l0,25.116c2.964,-6.656 7.332,-10.192 13.104,-10.608c3.12,-0.208 5.616,2.132 7.488,7.02c1.716,4.472 2.574,9.958 2.574,16.458c0,4.992 -0.546,9.49 -1.638,13.494Z" style="fill:#fff;fill-rule:nonzero;"/><path d="M344.453,75.145c-0.416,1.976 -1.82,4.082 -4.212,6.318c-0.364,0.572 -1.794,1.326 -4.29,2.262c-2.86,1.092 -5.33,1.56 -7.41,1.404c-3.9,-0.26 -6.968,-2.496 -9.204,-6.708c-2.028,-3.9 -3.042,-8.684 -3.042,-14.352c0,-6.136 1.144,-11.518 3.432,-16.146c2.548,-5.096 5.954,-7.956 10.218,-8.58c0.832,-0.104 1.638,-0.156 2.418,-0.156c6.188,0 9.594,3.796 10.218,11.388c0.312,3.484 -1.066,7.28 -4.134,11.388c-3.328,4.524 -7.592,7.696 -12.792,9.516c0.572,2.08 1.014,3.432 1.326,4.056c0.728,1.3 1.716,1.95 2.964,1.95c1.196,0 2.47,-0.468 3.822,-1.404c1.144,-0.78 1.924,-1.534 2.34,-2.262c0.208,-0.104 0.416,-0.689 0.624,-1.755c0.208,-1.066 0.754,-1.833 1.638,-2.301c0.312,-0.156 0.676,-0.234 1.092,-0.234c1.248,0 2.457,0.611 3.627,1.833c1.17,1.222 1.625,2.483 1.365,3.783Zm-12.246,-27.456c-2.08,0 -3.77,1.482 -5.07,4.446c-1.716,3.952 -2.418,7.852 -2.106,11.7c2.444,-0.78 4.706,-2.6 6.786,-5.46c2.08,-2.86 3.12,-5.408 3.12,-7.644c0,-2.028 -0.91,-3.042 -2.73,-3.042Z" style="fill:#fff;fill-rule:nonzero;"/><path d="M385.013,80.059c-0.78,2.548 -2.704,3.822 -5.772,3.822c-1.04,0 -1.872,-0.182 -2.496,-0.546c-0.832,-0.572 -1.404,-1.716 -1.716,-3.432c-0.624,-2.964 -1.248,-5.278 -1.872,-6.942c-0.156,2.86 -1.716,5.759 -4.68,8.697c-2.964,2.938 -5.954,4.407 -8.97,4.407c-3.796,0 -6.422,-2.522 -7.878,-7.566c-0.52,-1.872 -0.78,-3.64 -0.78,-5.304c0,-4.836 2.47,-8.97 7.41,-12.402c4.056,-2.392 8.138,-4.758 12.246,-7.098c0.208,-0.884 0.312,-1.742 0.312,-2.574c0,-1.612 -0.442,-2.561 -1.326,-2.847c-0.884,-0.286 -1.638,-0.429 -2.262,-0.429c-1.092,0 -1.989,0.351 -2.691,1.053c-0.702,0.702 -1.365,1.365 -1.989,1.989c-0.624,0.416 -1.43,1.378 -2.418,2.886c-0.78,1.196 -1.638,1.846 -2.574,1.95c-1.352,0.156 -2.574,-0.312 -3.666,-1.404c-1.092,-1.092 -1.638,-2.366 -1.638,-3.822c0,-0.832 0.208,-1.586 0.624,-2.262c1.196,-1.976 2.99,-3.692 5.382,-5.148c3.64,-2.184 8.19,-3.276 13.65,-3.276c3.484,0 5.876,1.664 7.176,4.992c0.832,2.236 1.456,6.422 1.872,12.558c0.468,7.436 1.04,12.87 1.716,16.302c0.104,0.676 0.546,1.534 1.326,2.574c0.78,1.04 1.17,1.95 1.17,2.73c0,0.364 -0.052,0.728 -0.156,1.092Zm-13.572,-19.188c-1.56,0.832 -3.107,1.69 -4.641,2.574c-1.534,0.884 -2.951,2.054 -4.251,3.51c-1.872,2.132 -2.808,3.952 -2.808,5.46c0,1.248 0.468,2.548 1.404,3.9c0.52,0.728 1.092,1.092 1.716,1.092c1.352,0 2.821,-1.508 4.407,-4.524c1.586,-3.016 2.977,-7.02 4.173,-12.012Z" style="fill:#fff;fill-rule:nonzero;"/><path d="M419.099,82.867c-0.624,1.404 -2.548,2.106 -5.772,2.106c-2.028,0 -3.38,-0.416 -4.056,-1.248c-0.26,-0.26 -0.39,-0.624 -0.39,-1.092c0,-0.364 0.13,-0.936 0.39,-1.716c0.26,-0.78 0.416,-1.378 0.468,-1.794c-2.392,3.38 -5.2,5.07 -8.424,5.07c-4.316,0 -7.462,-2.444 -9.438,-7.332c-1.508,-3.744 -2.262,-8.606 -2.262,-14.586c0,-5.512 1.17,-10.53 3.51,-15.054c2.6,-4.94 5.798,-7.41 9.594,-7.41c2.132,0 4.316,1.716 6.552,5.148l0,-10.062c0,-0.832 -0.338,-1.898 -1.014,-3.198c-0.676,-1.3 -1.014,-2.288 -1.014,-2.964c0,-0.52 0.13,-1.04 0.39,-1.56c1.092,-2.34 3.224,-3.51 6.396,-3.51c2.6,0 4.212,0.936 4.836,2.808c0.208,0.624 0.312,1.222 0.312,1.794c0,0.572 -0.169,1.339 -0.507,2.301c-0.338,0.962 -0.507,1.781 -0.507,2.457l0,44.46c0,0.572 0.208,1.261 0.624,2.067c0.416,0.806 0.624,1.469 0.624,1.989c0,0.416 -0.104,0.858 -0.312,1.326Zm-10.764,-20.592c0,-2.392 -0.494,-5.2 -1.482,-8.424c-1.092,-3.432 -2.158,-5.148 -3.198,-5.148c-1.196,0 -2.158,1.586 -2.886,4.758c-0.572,2.6 -0.858,5.538 -0.858,8.814c0,0.572 -0.026,1.508 -0.078,2.808c0,1.248 0,2.21 0,2.886c0,5.876 1.274,8.814 3.822,8.814c1.196,0 2.288,-1.69 3.276,-5.07c0.936,-3.12 1.404,-6.266 1.404,-9.438Z" style="fill:#fff;fill-rule:nonzero;"/><path d="M487.583,78.187c0.052,0.312 0.078,0.598 0.078,0.858c0,1.56 -0.91,2.873 -2.73,3.939c-1.82,1.066 -3.718,1.599 -5.694,1.599c-1.196,0 -2.158,-0.234 -2.886,-0.702c-0.52,-0.312 -0.975,-0.923 -1.365,-1.833c-0.39,-0.91 -0.819,-1.521 -1.287,-1.833l-17.238,-11.544l0.702,7.176c0.052,0.364 0.455,1.118 1.209,2.262c0.754,1.144 1.131,2.106 1.131,2.886c0,1.144 -0.728,2.21 -2.184,3.198c-0.884,0.624 -2.002,0.936 -3.354,0.936c-1.924,0 -3.718,-0.52 -5.382,-1.56c-1.82,-1.04 -2.912,-2.366 -3.276,-3.978c-0.052,-0.312 -0.078,-0.572 -0.078,-0.78c0,-0.728 0.351,-1.365 1.053,-1.911c0.702,-0.546 1.053,-1.053 1.053,-1.521l-2.496,-44.46c-0.052,-0.676 -0.338,-1.573 -0.858,-2.691c-0.52,-1.118 -0.78,-1.937 -0.78,-2.457c0,-1.352 0.884,-2.444 2.652,-3.276c1.456,-0.728 2.938,-1.092 4.446,-1.092c0.988,0 1.846,0.143 2.574,0.429c0.728,0.286 1.222,0.728 1.482,1.326c0.26,0.598 0.572,0.897 0.936,0.897c0.052,0.052 1.638,-0.52 4.758,-1.716c3.64,-1.352 6.838,-2.028 9.594,-2.028c4.004,0 7.228,1.404 9.672,4.212c0.676,0.78 1.014,1.872 1.014,3.276c0,3.796 -2.184,9.152 -6.552,16.068c-4.16,6.5 -8.45,11.7 -12.87,15.6l20.124,14.04c0.052,0.052 1.352,0.676 3.9,1.872c1.456,0.676 2.34,1.612 2.652,2.808Zm-20.904,-48.438c-1.144,0 -2.964,1.092 -5.46,3.276c-0.52,0.416 -2.444,2.21 -5.772,5.382l-0.156,13.962c3.224,-3.536 6.136,-7.475 8.736,-11.817c2.6,-4.342 3.9,-7.449 3.9,-9.321c0,-0.988 -0.416,-1.482 -1.248,-1.482Z" style="fill:#fff;fill-rule:nonzero;"/><path d="M518.471,75.145c-0.416,1.976 -1.82,4.082 -4.212,6.318c-0.364,0.572 -1.794,1.326 -4.29,2.262c-2.86,1.092 -5.33,1.56 -7.41,1.404c-3.9,-0.26 -6.968,-2.496 -9.204,-6.708c-2.028,-3.9 -3.042,-8.684 -3.042,-14.352c0,-6.136 1.144,-11.518 3.432,-16.146c2.548,-5.096 5.954,-7.956 10.218,-8.58c0.832,-0.104 1.638,-0.156 2.418,-0.156c6.188,0 9.594,3.796 10.218,11.388c0.312,3.484 -1.066,7.28 -4.134,11.388c-3.328,4.524 -7.592,7.696 -12.792,9.516c0.572,2.08 1.014,3.432 1.326,4.056c0.728,1.3 1.716,1.95 2.964,1.95c1.196,0 2.47,-0.468 3.822,-1.404c1.144,-0.78 1.924,-1.534 2.34,-2.262c0.208,-0.104 0.416,-0.689 0.624,-1.755c0.208,-1.066 0.754,-1.833 1.638,-2.301c0.312,-0.156 0.676,-0.234 1.092,-0.234c1.248,0 2.457,0.611 3.627,1.833c1.17,1.222 1.625,2.483 1.365,3.783Zm-12.246,-27.456c-2.08,0 -3.77,1.482 -5.07,4.446c-1.716,3.952 -2.418,7.852 -2.106,11.7c2.444,-0.78 4.706,-2.6 6.786,-5.46c2.08,-2.86 3.12,-5.408 3.12,-7.644c0,-2.028 -0.91,-3.042 -2.73,-3.042Z" style="fill:#fff;fill-rule:nonzero;"/><path d="M551.309,70.387c-0.052,1.144 -0.546,2.314 -1.482,3.51c-1.456,1.716 -2.392,3.016 -2.808,3.9c-3.276,4.992 -6.656,7.488 -10.14,7.488c-4.108,0 -7.306,-2.08 -9.594,-6.24c-2.028,-3.796 -3.042,-8.58 -3.042,-14.352c0,-6.604 1.248,-12.35 3.744,-17.238c2.756,-5.408 6.318,-8.112 10.686,-8.112c3.432,0 6.214,1.898 8.346,5.694c1.768,3.224 2.652,6.734 2.652,10.53c0,1.04 -0.078,1.95 -0.234,2.73c-0.364,1.768 -1.846,2.652 -4.446,2.652c-2.028,0 -3.588,-0.572 -4.68,-1.716c-0.52,-0.572 -0.78,-1.898 -0.78,-3.978c0,-0.52 0.026,-1.274 0.078,-2.262c0,-1.04 0,-1.794 0,-2.262c0,-2.34 -0.416,-3.51 -1.248,-3.51c-0.884,0 -1.82,2.561 -2.808,7.683c-0.988,5.122 -1.482,9.919 -1.482,14.391c0,5.2 0.78,7.8 2.34,7.8c2.028,0 3.536,-1.638 4.524,-4.914c0.416,-0.468 0.65,-1.404 0.702,-2.808c0,-1.248 0.312,-2.067 0.936,-2.457c0.624,-0.39 1.534,-0.585 2.73,-0.585c1.56,0 2.912,0.338 4.056,1.014c1.352,0.78 2.002,1.794 1.95,3.042Z" style="fill:#fff;fill-rule:nonzero;"/><path d="M581.573,43.087c3.484,3.536 5.226,9.49 5.226,17.862c0,6.5 -1.222,12.038 -3.666,16.614c-2.756,5.148 -6.552,7.722 -11.388,7.722c-4.784,0 -8.476,-2.314 -11.076,-6.942c-2.288,-4.056 -3.432,-9.204 -3.432,-15.444c0,-5.512 0.884,-10.452 2.652,-14.82c1.872,-4.68 4.264,-7.436 7.176,-8.268c1.508,-0.416 3.068,-0.624 4.68,-0.624c4.004,0 7.28,1.3 9.828,3.9Zm-8.892,3.744c-1.716,-0.156 -3.198,1.456 -4.446,4.836c-1.092,3.068 -1.638,6.292 -1.638,9.672c0,4.888 0.208,8.346 0.624,10.374c0.728,3.64 2.236,5.642 4.524,6.006c1.456,0.208 2.808,-1.794 4.056,-6.006c1.196,-4.056 1.794,-8.398 1.794,-13.026c0,-7.592 -1.638,-11.544 -4.914,-11.856Z" style="fill:#fff;fill-rule:nonzero;"/><path d="M622.679,43.555c-0.208,1.092 -1.196,1.846 -2.964,2.262c-2.08,0.52 -3.406,1.118 -3.978,1.794l-12.714,14.664l0,11.856c0,1.144 0.325,2.301 0.975,3.471c0.65,1.17 0.975,2.067 0.975,2.691c0,0.624 -0.182,1.326 -0.546,2.106c-0.884,1.976 -2.678,2.964 -5.382,2.964c-1.872,0 -3.354,-0.598 -4.446,-1.794c-0.728,-0.78 -1.092,-1.768 -1.092,-2.964c0,-0.416 0.052,-1.092 0.156,-2.028c0.104,-0.936 0.156,-1.69 0.156,-2.262l0,-29.172c0,-0.468 -0.208,-1.04 -0.624,-1.716c-0.416,-0.676 -0.624,-1.222 -0.624,-1.638c0,-0.312 0.104,-0.676 0.312,-1.092c0.676,-1.248 2.782,-1.872 6.318,-1.872c2.756,0 4.316,0.65 4.68,1.95c0.156,0.52 0.234,0.962 0.234,1.326c0,0.572 -0.208,1.014 -0.624,1.326c-0.416,0.312 -0.624,0.624 -0.624,0.936l0.156,2.808l6.708,-7.098c0.78,-0.884 1.599,-1.768 2.457,-2.652c0.858,-0.884 1.859,-1.378 3.003,-1.482c1.768,-0.156 3.471,0.234 5.109,1.17c1.638,0.936 2.457,2.158 2.457,3.666c0,0.26 -0.026,0.52 -0.078,0.78Z" style="fill:#fff;fill-rule:nonzero;"/><path d="M651.383,82.867c-0.624,1.404 -2.548,2.106 -5.772,2.106c-2.028,0 -3.38,-0.416 -4.056,-1.248c-0.26,-0.26 -0.39,-0.624 -0.39,-1.092c0,-0.364 0.13,-0.936 0.39,-1.716c0.26,-0.78 0.416,-1.378 0.468,-1.794c-2.392,3.38 -5.2,5.07 -8.424,5.07c-4.316,0 -7.462,-2.444 -9.438,-7.332c-1.508,-3.744 -2.262,-8.606 -2.262,-14.586c0,-5.512 1.17,-10.53 3.51,-15.054c2.6,-4.94 5.798,-7.41 9.594,-7.41c2.132,0 4.316,1.716 6.552,5.148l0,-10.062c0,-0.832 -0.338,-1.898 -1.014,-3.198c-0.676,-1.3 -1.014,-2.288 -1.014,-2.964c0,-0.52 0.13,-1.04 0.39,-1.56c1.092,-2.34 3.224,-3.51 6.396,-3.51c2.6,0 4.212,0.936 4.836,2.808c0.208,0.624 0.312,1.222 0.312,1.794c0,0.572 -0.169,1.339 -0.507,2.301c-0.338,0.962 -0.507,1.781 -0.507,2.457l0,44.46c0,0.572 0.208,1.261 0.624,2.067c0.416,0.806 0.624,1.469 0.624,1.989c0,0.416 -0.104,0.858 -0.312,1.326Zm-10.764,-20.592c0,-2.392 -0.494,-5.2 -1.482,-8.424c-1.092,-3.432 -2.158,-5.148 -3.198,-5.148c-1.196,0 -2.158,1.586 -2.886,4.758c-0.572,2.6 -0.858,5.538 -0.858,8.814c0,0.572 -0.026,1.508 -0.078,2.808c0,1.248 0,2.21 0,2.886c0,5.876 1.274,8.814 3.822,8.814c1.196,0 2.288,-1.69 3.276,-5.07c0.936,-3.12 1.404,-6.266 1.404,-9.438Z" style="fill:#fff;fill-rule:nonzero;"/><path d="M684.143,72.883c0,3.64 -1.3,6.747 -3.9,9.321c-2.6,2.574 -5.668,3.861 -9.204,3.861c-2.236,0 -4.55,-1.066 -6.942,-3.198c-1.872,-1.716 -3.562,-3.822 -5.07,-6.318c-1.3,-2.184 -1.872,-3.562 -1.716,-4.134c0.572,-1.3 2.366,-1.95 5.382,-1.95c1.248,0 2.236,0.182 2.964,0.546c1.248,0.676 1.95,1.534 2.106,2.574c0.156,1.196 0.416,1.95 0.78,2.262c1.092,1.664 2.08,2.496 2.964,2.496c0.676,0 1.313,-0.455 1.911,-1.365c0.598,-0.91 0.897,-1.989 0.897,-3.237c0,-0.78 -0.13,-1.56 -0.39,-2.34c-0.26,-0.78 -1.664,-1.976 -4.212,-3.588c-3.068,-1.924 -5.252,-3.614 -6.552,-5.07c-2.236,-2.496 -3.354,-5.408 -3.354,-8.736c0,-3.9 1.144,-7.319 3.432,-10.257c2.288,-2.938 5.2,-4.407 8.736,-4.407c3.64,0 6.422,1.378 8.346,4.134c1.56,2.236 2.21,4.498 1.95,6.786c0.572,0.624 0.858,1.664 0.858,3.12c0,1.56 -0.572,2.886 -1.716,3.978c-1.144,1.092 -2.314,1.638 -3.51,1.638c-1.768,0 -3.302,-1.17 -4.602,-3.51c-0.364,-0.624 -0.546,-1.456 -0.546,-2.496c0,-0.468 0.039,-1.131 0.117,-1.989c0.078,-0.858 0.117,-1.469 0.117,-1.833c0,-1.352 -0.494,-2.028 -1.482,-2.028c-1.508,0 -2.262,1.482 -2.262,4.446c0,3.016 0.988,5.434 2.964,7.254c0.78,0.728 2.47,1.768 5.07,3.12c2.236,1.144 3.822,2.314 4.758,3.51c1.404,1.82 2.106,4.29 2.106,7.41Z" style="fill:#fff;fill-rule:nonzero;"/><defs><radialGradient id="_Radial1" cx="0" cy="0" r="1" gradientUnits="userSpaceOnUse" gradientTransform="matrix(21.1883,-22.0723,47.7933,49.7873,100.688,105.046)"><stop offset="0" style="stop-color:#fff;stop-opacity:1"/><stop offset="1" style="stop-color:#fff;stop-opacity:0"/></radialGradient><radialGradient id="_Radial2" cx="0" cy="0" r="1" gradientUnits="userSpaceOnUse" gradientTransform="matrix(-21.1883,22.0723,-47.7933,-49.7873,5.10181,5.47185)"><stop offset="0" style="stop-color:#fff;stop-opacity:1"/><stop offset="1" style="stop-color:#fff;stop-opacity:0"/></radialGradient><radialGradient id="_Radial3" cx="0" cy="0" r="1" gradientUnits="userSpaceOnUse" gradientTransform="matrix(0,42.3233,-14.1421,0,52.8951,55.2592)"><stop offset="0" style="stop-color:#f7f7f7;stop-opacity:1"/><stop offset="1" style="stop-color:#e1e1e1;stop-opacity:1"/></radialGradient></defs></svg>